<svg version="1.1" viewBox="0.0 0.0 960.0 720.0" fill="none" stroke="none" stroke-linecap="square" stroke-miterlimit="10" xmlns:xlink="http://www.w3.org/1999/xlink" xmlns="http://www.w3.org/2000/svg"><clipPath id="p.0"><path d="m0 0l960.0 0l0 720.0l-960.0 0l0 -720.0z" clip-rule="nonzero"/></clipPath><g clip-path="url(#p.0)"><path fill="#000000" fill-opacity="0.0" d="m0 0l960.0 0l0 720.0l-960.0 0z" fill-rule="evenodd"/><path fill="#000000" fill-opacity="0.0" d="m202.80577 16.787401l296.0315 0l0 251.62206l-296.0315 0z" fill-rule="evenodd"/><path fill="#1c4587" d="m432.1183 537.7874l0 -41.40625q-15.109375 22.140625 -39.71875 34.90625q-24.609375 12.75 -51.953125 12.75q-27.859375 0 -50.0 -12.234375q-22.125 -12.25 -32.03125 -34.375q-9.89064 -22.140625 -9.89064 -61.203125l0 -175.0l73.17189 0l0 127.078125q0 58.34375 4.03125 71.5q4.046875 13.140625 14.71875 20.828125q10.6875 7.671875 27.09375 7.671875q18.75 0 33.59375 -10.28125q14.84375 -10.28125 20.3125 -25.515625q5.46875 -15.234375 5.46875 -74.609375l0 -116.671875l73.171875 0l0 276.5625l-67.96875 0z" fill-rule="nonzero"/><path fill="#000000" fill-opacity="0.0" d="m387.01312 16.787401l296.0315 0l0 251.62206l-296.0315 0z" fill-rule="evenodd"/><path fill="#351c75" d="m685.8569 537.7874l-73.171875 0l0 -141.14062q0 -44.796875 -4.6875 -57.9375q-4.6875 -13.15625 -15.234375 -20.453125q-10.546875 -7.296875 -25.390625 -7.296875q-19.015625 0 -34.125 10.421875q-15.09375 10.421875 -20.703125 27.609375q-5.59375 17.1875 -5.59375 63.53125l0 125.265625l-73.171875 0l0 -276.5625l67.96875 0l0 40.625q36.1875 -46.875015 91.140625 -46.875015q24.21875 0 44.265625 8.73439q20.0625 8.71875 30.34375 22.265625q10.28125 13.53125 14.3125 30.71875q4.046875 17.1875 4.046875 49.21875l0 171.875z" fill-rule="nonzero"/><path fill="#000000" fill-opacity="0.0" d="m710.2441 142.43832l85.85828 0l0 80.97638l-85.85828 0z" fill-rule="evenodd"/><path fill="#073763" d="m429.44882 260.4908l74.92914 0l0 277.0709l-74.92914 0z" fill-rule="evenodd"/><path stroke="#000000" stroke-width="1.0" stroke-linejoin="round" stroke-linecap="butt" d="m429.44882 260.4908l74.92914 0l0 277.0709l-74.92914 0z" fill-rule="evenodd"/></g></svg>